<svg width="18" height="14" viewBox="0 0 18 14" fill="none" xmlns="http://www.w3.org/2000/svg">
<path d="M6.7042 10.2945C7.09446 10.6853 7.09403 11.3184 6.70324 11.7087C6.31245 12.0989 5.67928 12.0985 5.28902 11.7077L0.29241 6.70427C-0.0976301 6.31369 -0.0974465 5.68096 0.29282 5.29061L5.28943 0.292966C5.67992 -0.0975982 6.31308 -0.0976639 6.70365 0.29282C7.09421 0.683304 7.09428 1.31647 6.70379 1.70703L3.411 5H10C14.3349 5 17.8645 8.44784 17.9962 12.7508L18 13C18 13.5523 17.5523 14 17 14C16.4477 14 16 13.5523 16 13C16 9.7616 13.4344 7.12243 10.2249 7.00414L10 7H3.414L6.7042 10.2945Z" fill="#242424"/>
</svg>
